<svg xmlns="http://www.w3.org/2000/svg" viewBox="0 0 88.96 88.96"><defs><style>.cls-2{stroke:#000;stroke-miterlimit:10;}.cls-2{fill:none;stroke-width:0.5px;}.cls-3{fill:#9d7f51;}</style></defs><title>Asset 8</title><g id="Layer_2" data-name="Layer 2"><g id="Layer_1-2" data-name="Layer 1"><path class="cls-2" d="M44.48,44.65S43.6,37.44,33.4,32.58c-5.1-2.43-8.62-3-10.87-3.05a3.23,3.23,0,0,0-3.21,3.24V56.19a3.24,3.24,0,0,0,3.26,3.24A24.33,24.33,0,0,0,33.4,56.68c7.62-3.92,11.08-12,11.08-12"/><path class="cls-2" d="M44.48,44.65s.88-7.21,11.08-12.08c5.1-2.43,8.62-3,10.87-3.05a3.23,3.23,0,0,1,3.21,3.24V56.19a3.24,3.24,0,0,1-3.26,3.24,24.33,24.33,0,0,1-10.83-2.75c-7.62-3.92-11.08-12-11.08-12"/><rect class="cls-3" x="37.4" y="37.4" width="14.17" height="14.17" rx="7.08" ry="7.08"/></g></g></svg>
