<?xml version="1.0" encoding="utf-8"?>
<!-- Generator: Adobe Illustrator 20.1.0, SVG Export Plug-In . SVG Version: 6.00 Build 0)  -->
<svg version="1.1" id="Calque_1" xmlns="http://www.w3.org/2000/svg" xmlns:xlink="http://www.w3.org/1999/xlink" x="0px" y="0px"
	 viewBox="0 0 89 89" style="enable-background:new 0 0 89 89;" xml:space="preserve">
<style type="text/css">
	.st0{fill:#FFFFFF;stroke:#000000;stroke-miterlimit:10;}
	.st1{fill:#9D7F51;}
	.st2{fill:#FFFFFF;stroke:#000000;stroke-width:0.5;stroke-miterlimit:10;}
	.st3{fill:#FFFFFF;stroke:#000000;stroke-width:0.25;stroke-miterlimit:10;}
	.st4{fill:none;stroke:#000000;stroke-width:5;stroke-miterlimit:10;}
</style>
<title>Fichier 5</title>
<circle class="st0" cx="45.6" cy="45.5" r="44"/>
<rect x="46.6" y="85.4" class="st1" width="6.2" height="3.5"/>
<rect x="41.5" y="80.9" class="st1" width="6.2" height="3.5"/>
<g>
	<path class="st2" d="M128.5-26.8h1.6c3.5,0,6.3,2.8,6.3,6.3v7.6c0,3.5-2.8,6.3-6.3,6.3h-1.6c-3.5,0-6.3-2.8-6.3-6.3v-7.6
		C122.2-24,125-26.8,128.5-26.8z"/>
	<path class="st2" d="M114.7,1.6l-0.8-0.8c-1.7-1.7-1.7-4.5,0-6.2l12.4-12.4c1.7-1.7,4.5-1.7,6.2,0l0.8,0.8c1.7,1.7,1.7,4.5,0,6.2
		L120.9,1.6C119.2,3.3,116.4,3.3,114.7,1.6z"/>
	<path class="st3" d="M129.6-22.3h0.3c0.7,0,1.2,0.6,1.2,1.2v6.3c0,0.7-0.6,1.2-1.2,1.2h-0.3c-0.7,0-1.2-0.6-1.2-1.2V-21
		C128.4-21.7,128.9-22.3,129.6-22.3z"/>
</g>
<path class="st4" d="M12.8,35.7"/>
<rect x="46.6" y="58.3" class="st1" width="6.2" height="3.5"/>
<rect x="41.5" y="53.8" class="st1" width="6.2" height="3.5"/>
<polyline class="st1" points="46.6,52.8 46.6,49.3 52.9,49.3 52.9,52.8 "/>
<rect x="41.5" y="44.7" class="st1" width="6.2" height="3.5"/>
<rect x="46.6" y="40.2" class="st1" width="6.2" height="3.5"/>
<rect x="46.6" y="76.4" class="st1" width="6.2" height="3.5"/>
<rect x="41.5" y="71.9" class="st1" width="6.2" height="3.5"/>
<polyline class="st1" points="46.6,70.9 46.6,67.4 52.9,67.4 52.9,70.9 "/>
<rect x="41.5" y="62.8" class="st1" width="6.2" height="3.5"/>
<rect x="52.2" y="39.2" width="0.7" height="50.1"/>
<rect x="41.5" y="37" width="0.7" height="52.3"/>
<rect x="41.5" y="35.7" class="st1" width="6.2" height="3.5"/>
<polyline class="st1" points="46.6,34.7 46.6,31.2 52.9,31.2 52.9,34.7 "/>
<rect x="41.5" y="26.7" class="st1" width="6.2" height="3.5"/>
<rect x="46.6" y="22.1" class="st1" width="6.2" height="3.5"/>
<rect x="41.5" y="17.6" class="st1" width="6.2" height="3.5"/>
<polyline class="st1" points="46.6,16.6 46.6,13.1 52.9,13.1 52.9,16.6 "/>
<rect x="41.5" y="8.6" class="st1" width="6.2" height="3.5"/>
<rect x="46.6" y="4" class="st1" width="6.2" height="3.5"/>
<polyline points="52.2,39.2 52.2,2.1 52.9,2.1 52.9,39.2 "/>
<polyline points="41.5,39.2 41.5,1.6 42.2,1.6 42.2,39.2 "/>
</svg>
