<svg xmlns="http://www.w3.org/2000/svg" viewBox="0 0 88.96 88.96"><defs><style>.cls-1,.cls-3,.cls-4{fill:#fff;}.cls-1,.cls-3,.cls-4,.cls-5{stroke:#000;stroke-miterlimit:10;}.cls-2{fill:#9d7f51;}.cls-3{stroke-width:0.5px;}.cls-4{stroke-width:0.25px;}.cls-5{fill:none;stroke-width:5px;}</style></defs><title>Fichier 5</title><g id="Calque_2" data-name="Calque 2"><g id="Calque_1-2" data-name="Calque 1"><circle class="cls-1" cx="44.48" cy="44.48" r="43.98"/><rect x="41.35" y="35.9" width="0.52" height="52.54" transform="translate(-1.12 0.77) rotate(-1.04)"/><polygon points="52.17 87.61 52.64 87.7 52.64 35.93 52.17 35.93 52.17 87.61"/><polygon points="52.17 35.93 52.64 35.93 67.43 6.62 66.89 6.4 52.17 35.93"/><polygon points="41.39 35.9 40.87 35.91 25.4 4.84 25.93 4.59 28.8 10.23 41.39 35.9"/><rect class="cls-2" x="45.92" y="82.16" width="6.25" height="3.52"/><rect class="cls-2" x="41.87" y="76.58" width="6.25" height="3.52"/><rect class="cls-2" x="45.92" y="71" width="6.25" height="3.52"/><rect class="cls-2" x="41.87" y="65.42" width="6.25" height="3.52"/><polyline class="cls-2" points="45.92 63.37 45.92 59.84 52.17 59.84 52.17 63.37"/><rect class="cls-2" x="39.32" y="29.92" width="5.86" height="3.52" transform="translate(-9.69 22.15) rotate(-26.47)"/><rect class="cls-2" x="35.49" y="21.98" width="6.64" height="3.52" transform="translate(-6.51 19.78) rotate(-26.47)"/><rect class="cls-2" x="31.62" y="13.77" width="6.25" height="3.52" transform="translate(-3.28 17.11) rotate(-26.47)"/><polygon class="cls-2" points="34.03 7.67 28.44 10.45 26.77 7.09 32.47 4.51 34.03 7.67"/><rect class="cls-2" x="50.32" y="25.53" width="6.25" height="3.52" transform="translate(89.13 75.55) rotate(-153.53)"/><rect class="cls-2" x="54.4" y="17.34" width="6.25" height="3.52" transform="translate(100.51 61.83) rotate(-153.53)"/><rect class="cls-2" x="58.48" y="9.14" width="6.25" height="3.52" transform="translate(111.9 48.12) rotate(-153.53)"/><rect class="cls-3" x="39.61" y="36.44" width="14.18" height="20.22" rx="6.29" ry="6.29"/><rect class="cls-3" x="36.05" y="42.02" width="9.89" height="26.3" rx="4.39" ry="4.39" transform="translate(30.96 123.18) rotate(-135)"/><rect class="cls-4" x="45.77" y="40.97" width="2.79" height="8.83" rx="1.24" ry="1.24"/><path class="cls-5" d="M12.8,35.73"/></g></g></svg>