<?xml version="1.0" encoding="utf-8"?>
<!-- Generator: Adobe Illustrator 20.1.0, SVG Export Plug-In . SVG Version: 6.00 Build 0)  -->
<svg version="1.1" id="Calque_1" xmlns="http://www.w3.org/2000/svg" xmlns:xlink="http://www.w3.org/1999/xlink" x="0px" y="0px"
	 viewBox="0 0 89 89" style="enable-background:new 0 0 89 89;" xml:space="preserve">
<style type="text/css">
	.st0{fill:#FFFFFF;stroke:#000000;stroke-miterlimit:10;}
	.st1{fill:none;stroke:#000000;stroke-width:5;stroke-miterlimit:10;}
	.st2{fill:#9D7F51;}
	.st3{fill:#FFFFFF;stroke:#000000;stroke-width:0.5;stroke-miterlimit:10;}
	.st4{fill:#FFFFFF;stroke:#000000;stroke-width:0.25;stroke-miterlimit:10;}
</style>
<title>Fichier 5</title>
<circle class="st0" cx="45.6" cy="45.5" r="44"/>
<path class="st1" d="M12.8,35.7"/>
<g>
	<rect x="46.6" y="85.4" class="st2" width="6.2" height="3.5"/>
	<rect x="41.5" y="80.9" class="st2" width="6.2" height="3.5"/>
	<rect x="46.6" y="58.3" class="st2" width="6.2" height="3.5"/>
	<rect x="41.5" y="53.8" class="st2" width="6.2" height="3.5"/>
	<polyline class="st2" points="46.6,52.8 46.6,49.3 52.9,49.3 52.9,52.8 	"/>
	<rect x="41.5" y="44.7" class="st2" width="6.2" height="3.5"/>
	<rect x="46.6" y="40.2" class="st2" width="6.2" height="3.5"/>
	<rect x="46.6" y="76.4" class="st2" width="6.2" height="3.5"/>
	<rect x="41.5" y="71.9" class="st2" width="6.2" height="3.5"/>
	<polyline class="st2" points="46.6,70.9 46.6,67.4 52.9,67.4 52.9,70.9 	"/>
	<rect x="41.5" y="62.8" class="st2" width="6.2" height="3.5"/>
	<rect x="52.2" y="39.2" width="0.7" height="50.1"/>
	<rect x="41.5" y="37" width="0.7" height="52.3"/>
</g>
<g>
	<polyline class="st2" points="48.6,35 49.9,31.7 55.7,34 54.4,37.2 	"/>
	<rect x="53.6" y="22.9" transform="matrix(0.3584 -0.9336 0.9336 0.3584 11.2335 68.4147)" class="st2" width="3.5" height="6.2"/>
	<polyline class="st2" points="55.1,18.1 56.3,14.8 62.2,17.1 60.9,20.4 	"/>
	<rect x="60.1" y="6" transform="matrix(0.3584 -0.9336 0.9336 0.3584 31.1598 63.6308)" class="st2" width="3.5" height="6.2"/>
	<polyline points="52.2,41.2 65.5,6.6 66.1,6.8 52.8,41.5 	"/>
</g>
<g>
	
		<rect x="40.7" y="35.7" transform="matrix(0.9336 -0.3584 0.3584 0.9336 -10.5134 18.1889)" class="st2" width="6.2" height="3.5"/>
	<rect x="37.4" y="27.2" transform="matrix(0.9336 -0.3584 0.3584 0.9336 -7.701 16.4655)" class="st2" width="6.2" height="3.5"/>
	<rect x="34.2" y="18.8" transform="matrix(0.9336 -0.3584 0.3584 0.9336 -4.8917 14.744)" class="st2" width="6.2" height="3.5"/>
	<rect x="31" y="10.4" transform="matrix(0.9336 -0.3584 0.3584 0.9336 -2.0793 13.0205)" class="st2" width="6.2" height="3.5"/>
	<polyline points="41.5,40.2 28,5.1 28.7,4.8 42.2,40 	"/>
</g>
<g>
	<path class="st3" d="M46,36.6h1.6c3.5,0,6.3,2.8,6.3,6.3v7.6c0,3.5-2.8,6.3-6.3,6.3H46c-3.5,0-6.3-2.8-6.3-6.3v-7.6
		C39.7,39.5,42.5,36.6,46,36.6z"/>
	<path class="st3" d="M32.2,65.1l-0.8-0.8c-1.7-1.7-1.7-4.5,0-6.2l12.4-12.4c1.7-1.7,4.5-1.7,6.2,0l0.8,0.8c1.7,1.7,1.7,4.5,0,6.2
		L38.4,65.1C36.7,66.8,33.9,66.8,32.2,65.1z"/>
	<path class="st4" d="M47.1,41.2h0.3c0.7,0,1.2,0.6,1.2,1.2v6.3c0,0.7-0.6,1.2-1.2,1.2h-0.3c-0.7,0-1.2-0.6-1.2-1.2v-6.3
		C45.9,41.7,46.4,41.2,47.1,41.2z"/>
</g>
</svg>
