<?xml version="1.0" encoding="utf-8"?>
<!-- Generator: Adobe Illustrator 20.1.0, SVG Export Plug-In . SVG Version: 6.00 Build 0)  -->
<svg version="1.1" id="Calque_1" xmlns="http://www.w3.org/2000/svg" xmlns:xlink="http://www.w3.org/1999/xlink" x="0px" y="0px"
	 viewBox="0 0 89 89" style="enable-background:new 0 0 89 89;" xml:space="preserve">
<style type="text/css">
	.st0{fill:#9D7F51;}
</style>
<g>
	<title>Fichier 3</title>
	<path class="st0" d="M64,24.4L64,24.4c3.2,3.2,3.2,8.3,0,11.5L35.9,63.9c-3.2,3.2-8.3,3.2-11.5,0l0,0c-3.2-3.2-3.2-8.3,0-11.5
		l28.1-28.1C55.7,21.2,60.8,21.2,64,24.4z"/>
	<path class="st0" d="M64,63.9L64,63.9c-3.2,3.2-8.3,3.2-11.5,0L24.5,35.9c-3.2-3.2-3.2-8.3,0-11.5l0,0c3.2-3.2,8.3-3.2,11.5,0
		L64,52.4C67.2,55.6,67.2,60.8,64,63.9z"/>
</g>
</svg>
