<?xml version="1.0" encoding="utf-8"?>
<!-- Generator: Adobe Illustrator 20.1.0, SVG Export Plug-In . SVG Version: 6.00 Build 0)  -->
<svg version="1.1" id="Calque_1" xmlns="http://www.w3.org/2000/svg" xmlns:xlink="http://www.w3.org/1999/xlink" x="0px" y="0px"
	 viewBox="0 0 89 89" style="enable-background:new 0 0 89 89;" xml:space="preserve">
<style type="text/css">
	.st0{fill:none;stroke:#000000;stroke-miterlimit:10;}
	.st1{fill:#9D7F51;}
</style>
<title>Fichier 3</title>
<circle class="st0" cx="44.5" cy="44.5" r="44"/>
<g>
	<path class="st1" d="M58.4,29.1l4.9-4.9c-2.9-2.2-6.9-2.2-9.8,0L58.4,29.1z"/>
	<path class="st1" d="M58.4,32l-4.9,4.9c2.9,2.2,6.9,2.2,9.8,0L58.4,32z"/>
	<path class="st1" d="M64.7,35.5c2.2-2.9,2.2-6.9,0-9.8l-4.9,4.9L64.7,35.5z"/>
	<path class="st1" d="M52,25.6c-2.2,2.9-2.2,6.9,0,9.8l4.9-4.9L52,25.6z"/>
</g>
<g>
	<path class="st1" d="M30.6,29.1l4.9-4.9c-2.9-2.2-6.9-2.2-9.8,0L30.6,29.1z"/>
	<path class="st1" d="M30.6,32l-4.9,4.9c2.9,2.2,6.9,2.2,9.8,0L30.6,32z"/>
	<path class="st1" d="M36.9,35.5c2.2-2.9,2.2-6.9,0-9.8L32,30.6L36.9,35.5z"/>
	<path class="st1" d="M24.2,25.6c-2.2,2.9-2.2,6.9,0,9.8l4.9-4.9L24.2,25.6z"/>
</g>
<g>
	<path class="st1" d="M30.6,57l4.9-4.9c-2.9-2.2-6.9-2.2-9.8,0L30.6,57z"/>
	<path class="st1" d="M30.6,59.8l-4.9,4.9c2.9,2.2,6.9,2.2,9.8,0L30.6,59.8z"/>
	<path class="st1" d="M36.9,63.3c2.2-2.9,2.2-6.9,0-9.8L32,58.4L36.9,63.3z"/>
	<path class="st1" d="M24.2,53.5c-2.2,2.9-2.2,6.9,0,9.8l4.9-4.9L24.2,53.5z"/>
</g>
<g>
	<path class="st1" d="M58.4,57l4.9-4.9c-2.9-2.3-7-2.3-9.8,0L58.4,57z"/>
	<path class="st1" d="M58.4,59.8l-5,4.9c2.9,2.2,6.9,2.2,9.8,0L58.4,59.8z"/>
	<path class="st1" d="M64.7,63.3c2.2-2.9,2.2-6.9,0-9.8l-4.9,4.9L64.7,63.3z"/>
	<path class="st1" d="M52,53.5c-2.2,2.9-2.2,6.9,0,9.8l4.9-4.9L52,53.5z"/>
</g>
</svg>
