<?xml version="1.0" encoding="utf-8"?>
<!-- Generator: Adobe Illustrator 20.1.0, SVG Export Plug-In . SVG Version: 6.00 Build 0)  -->
<svg version="1.1" id="Calque_1" xmlns="http://www.w3.org/2000/svg" xmlns:xlink="http://www.w3.org/1999/xlink" x="0px" y="0px"
	 viewBox="0 0 324.8 369" style="enable-background:new 0 0 324.8 369;" xml:space="preserve">
<style type="text/css">
	.st0{opacity:0.22;}
	.st1{fill:none;stroke:#000000;stroke-width:3;stroke-miterlimit:10;}
	.st2{fill:none;stroke:#000000;stroke-width:3;stroke-miterlimit:10;stroke-dasharray:12.95,12.95;}
	.st3{fill:none;stroke:#000000;stroke-width:3;stroke-miterlimit:10;stroke-dasharray:9.45,9.45;}
	.st4{fill:none;stroke:#000000;stroke-width:3;stroke-miterlimit:10;stroke-dasharray:10.52,10.52;}
	.st5{fill:none;stroke:#000000;stroke-width:3;stroke-miterlimit:10;stroke-dasharray:10.32,10.32;}
	.st6{fill:none;stroke:#000000;stroke-width:3;stroke-miterlimit:10;stroke-dasharray:10.48,10.48;}
	.st7{fill:none;stroke:#000000;stroke-width:3;stroke-miterlimit:10;stroke-dasharray:10.73,10.73;}
	.st8{fill:none;stroke:#000000;stroke-width:3;stroke-miterlimit:10;stroke-dasharray:19.65,19.65,9.43,19.65;}
	.st9{fill:none;stroke:#000000;stroke-width:3;stroke-miterlimit:10;stroke-dasharray:8.64,8.64,4.15,8.64;}
	.st10{fill:none;stroke:#000000;stroke-width:3;stroke-miterlimit:10;stroke-dasharray:15.32,15.32,7.35,15.32;}
	.st11{fill:none;stroke:#000000;stroke-width:3;stroke-miterlimit:10;stroke-dasharray:9.75,9.75,4.68,9.75;}
	.st12{fill:none;stroke:#000000;stroke-width:3;stroke-miterlimit:10;stroke-dasharray:9.96,9.96,4.78,9.96;}
	.st13{fill:none;stroke:#000000;stroke-width:3;stroke-miterlimit:10;stroke-dasharray:21.07,21.07,10.12,21.07;}
	.st14{fill:none;stroke:#000000;stroke-width:3;stroke-miterlimit:10;stroke-dasharray:35.79,8.59;}
	.st15{fill:none;stroke:#000000;stroke-width:3;stroke-miterlimit:10;stroke-dasharray:38.37,9.21;}
	.st16{fill:none;stroke:#000000;stroke-width:3;stroke-miterlimit:10;stroke-dasharray:1.32,7.94,33.09,1.32;}
	.st17{fill:none;stroke:#000000;stroke-width:3;stroke-miterlimit:10;stroke-dasharray:0.24,1.42,5.91,0.24;}
	.st18{fill:none;stroke:#000000;stroke-width:3;stroke-miterlimit:10;stroke-dasharray:0.91,5.49,22.86,0.91;}
	.st19{fill:none;stroke:#000000;stroke-width:3;stroke-miterlimit:10;stroke-dasharray:0.35,2.09,8.72,0.35;}
	.st20{fill:none;stroke:#000000;stroke-width:3;stroke-miterlimit:10;stroke-dasharray:0.37,2.22,9.25,0.37;}
	.st21{fill:none;stroke:#000000;stroke-width:3;stroke-miterlimit:10;stroke-dasharray:1.41,8.48,35.34,1.41;}
</style>
<title>Asset 10</title>
<g id="Layer_2">
	<g id="Layer_1-2">
		<g class="st0">
			<polyline class="st1" points="322.5,1.5 322.2,108.8 261.2,129.4 322.1,147.5 321.9,233.2 265,249.7 321.8,266.5 321.6,369 			
				"/>
			<line class="st1" x1="257.6" y1="363" x2="257.6" y2="369"/>
			<line class="st2" x1="257.8" y1="278.8" x2="257.6" y2="350"/>
			<polyline class="st1" points="252.1,264.6 257.8,266.3 257.8,272.3 			"/>
			<line class="st3" x1="211.3" y1="252.6" x2="243" y2="262"/>
			<polyline class="st1" points="206.8,247.9 201,249.5 206.8,251.2 			"/>
			<line class="st3" x1="247.6" y1="236" x2="215.9" y2="245.2"/>
			<polyline class="st1" points="257.9,227 257.9,233 252.2,234.7 			"/>
			<line class="st4" x1="258.1" y1="158.6" x2="258" y2="216.5"/>
			<polyline class="st1" points="252.4,145.6 258.1,147.3 258.1,153.3 			"/>
			<line class="st5" x1="207.9" y1="132.4" x2="242.5" y2="142.7"/>
			<polyline class="st1" points="202.9,127.3 197.2,129.2 202.9,130.9 			"/>
			<line class="st6" x1="247.6" y1="112.2" x2="212.8" y2="123.9"/>
			<polyline class="st1" points="258.2,102.6 258.2,108.6 252.5,110.5 			"/>
			<line class="st7" x1="258.5" y1="11.4" x2="258.3" y2="91.9"/>
			<line class="st1" x1="258.5" y1="0" x2="258.5" y2="6"/>
			<line class="st1" x1="192.6" y1="356.5" x2="192.6" y2="369"/>
			<line class="st8" x1="192.8" y1="288.5" x2="192.6" y2="347"/>
			<polyline class="st1" points="180.9,262.6 192.8,266.2 192.8,278.7 			"/>
			<line class="st9" x1="152.2" y1="254.1" x2="176.9" y2="261.5"/>
			<polyline class="st1" points="148.1,245.9 136,249.4 148,252.9 			"/>
			<line class="st9" x1="176.8" y1="237.5" x2="152" y2="244.7"/>
			<polyline class="st1" points="192.9,220.3 192.9,232.8 180.9,236.3 			"/>
			<line class="st10" x1="193.1" y1="167.3" x2="193" y2="213"/>
			<polyline class="st1" points="181.1,143.6 193.1,147.2 193.1,159.7 			"/>
			<line class="st11" x1="148.8" y1="134" x2="176.7" y2="142.3"/>
			<polyline class="st1" points="144,125 132.2,129 144.2,132.6 			"/>
			<line class="st12" x1="176.7" y1="114" x2="148.6" y2="123.5"/>
			<polyline class="st1" points="193.3,96 193.2,108.5 181.4,112.4 			"/>
			<line class="st13" x1="193.4" y1="23" x2="193.3" y2="85.8"/>
			<line class="st1" x1="193.5" y1="0" x2="193.5" y2="12.5"/>
			<line class="st1" x1="128.6" y1="344" x2="128.6" y2="369"/>
			<line class="st14" x1="128.8" y1="295.3" x2="128.7" y2="335.4"/>
			<polyline class="st1" points="104.9,258.9 128.8,266 128.8,291 			"/>
			<polyline class="st1" points="96.1,242.2 72,249.2 96,256.3 			"/>
			<polyline class="st1" points="129,207.7 128.9,232.7 104.9,239.7 			"/>
			<polyline class="st1" points="105.2,139.9 129.1,147 129.1,172 			"/>
			<polyline class="st1" points="91.9,120.9 68.2,128.9 92.1,136 			"/>
			<polyline class="st1" points="129.3,83.3 129.2,108.3 105.5,116.3 			"/>
			<line class="st15" x1="129.4" y1="31.1" x2="129.3" y2="74.1"/>
			<line class="st1" x1="129.5" y1="1.5" x2="129.4" y2="26.5"/>
			<line class="st1" x1="64.6" y1="342.5" x2="64.6" y2="367.5"/>
			<line class="st16" x1="64.8" y1="291.5" x2="64.7" y2="334.5"/>
			<polyline class="st1" points="40.9,258.8 64.8,265.9 64.8,290.9 			"/>
			<line class="st17" x1="32.1" y1="256.2" x2="39.5" y2="258.4"/>
			<polyline class="st1" points="32,242.1 8,249 32,256.1 			"/>
			<line class="st17" x1="40.8" y1="239.5" x2="33.4" y2="241.7"/>
			<polyline class="st1" points="65,207.5 64.9,232.5 40.9,239.5 			"/>
			<line class="st18" x1="65.1" y1="172.3" x2="65" y2="202"/>
			<polyline class="st1" points="41.2,139.7 65.1,146.9 65.1,171.9 			"/>
			<line class="st19" x1="28.3" y1="135.9" x2="39.2" y2="139.1"/>
			<polyline class="st1" points="27.9,120.7 4.2,128.7 28.1,135.8 			"/>
			<line class="st20" x1="41.4" y1="116.2" x2="30" y2="120"/>
			<polyline class="st1" points="65.3,83.1 65.2,108.1 41.5,116.1 			"/>
			<line class="st21" x1="65.4" y1="28.7" x2="65.3" y2="74.7"/>
			<line class="st1" x1="65.5" y1="3" x2="65.4" y2="28"/>
		</g>
	</g>
</g>
</svg>
