<svg xmlns="http://www.w3.org/2000/svg" viewBox="0 0 324.78 368.99"><defs><style>.cls-1{opacity:0.22;}.cls-10,.cls-11,.cls-12,.cls-13,.cls-14,.cls-15,.cls-16,.cls-17,.cls-18,.cls-19,.cls-2,.cls-20,.cls-21,.cls-22,.cls-3,.cls-4,.cls-5,.cls-6,.cls-7,.cls-8,.cls-9{fill:none;stroke:#000;stroke-miterlimit:10;stroke-width:3px;}.cls-3{stroke-dasharray:12.95 12.95;}.cls-4{stroke-dasharray:9.45 9.45;}.cls-5{stroke-dasharray:10.52 10.52;}.cls-6{stroke-dasharray:10.32 10.32;}.cls-7{stroke-dasharray:10.48 10.48;}.cls-8{stroke-dasharray:10.73 10.73;}.cls-9{stroke-dasharray:19.65 19.65 9.43 19.65;}.cls-10{stroke-dasharray:8.64 8.64 4.15 8.64;}.cls-11{stroke-dasharray:15.32 15.32 7.35 15.32;}.cls-12{stroke-dasharray:9.75 9.75 4.68 9.75;}.cls-13{stroke-dasharray:9.96 9.96 4.78 9.96;}.cls-14{stroke-dasharray:21.07 21.07 10.12 21.07;}.cls-15{stroke-dasharray:35.79 8.59;}.cls-16{stroke-dasharray:38.37 9.21;}.cls-17{stroke-dasharray:1.32 7.94 33.09 1.32;}.cls-18{stroke-dasharray:0.24 1.42 5.91 0.24;}.cls-19{stroke-dasharray:0.91 5.49 22.86 0.91;}.cls-20{stroke-dasharray:0.35 2.09 8.72 0.35;}.cls-21{stroke-dasharray:0.37 2.22 9.25 0.37;}.cls-22{stroke-dasharray:1.41 8.48 35.34 1.41;}</style></defs><title>Asset 10</title><g id="Layer_2" data-name="Layer 2"><g id="Layer_1-2" data-name="Layer 1"><g class="cls-1"><polyline class="cls-2" points="2.42 368.98 2.17 266.5 58.96 249.69 2.08 233.17 1.87 147.5 62.82 129.35 1.77 108.78 1.5 1.5"/><line class="cls-2" x1="66.42" y1="368.99" x2="66.41" y2="362.99"/><line class="cls-3" x1="66.38" y1="350.04" x2="66.2" y2="278.81"/><polyline class="cls-2" points="66.18 272.34 66.17 266.34 71.92 264.64"/><line class="cls-4" x1="80.98" y1="261.96" x2="112.68" y2="252.57"/><polyline class="cls-2" points="117.2 251.23 122.96 249.53 117.2 247.86"/><line class="cls-4" x1="108.13" y1="245.22" x2="76.38" y2="236"/><polyline class="cls-2" points="71.84 234.68 66.08 233.01 66.07 227.01"/><line class="cls-5" x1="66.04" y1="216.48" x2="65.9" y2="158.6"/><polyline class="cls-2" points="65.88 153.34 65.87 147.34 71.62 145.63"/><line class="cls-6" x1="81.51" y1="142.68" x2="116.13" y2="132.37"/><polyline class="cls-2" points="121.07 130.9 126.82 129.19 121.14 127.27"/><line class="cls-7" x1="111.2" y1="123.92" x2="76.42" y2="112.21"/><polyline class="cls-2" points="71.46 110.53 65.77 108.62 65.75 102.62"/><line class="cls-8" x1="65.73" y1="91.89" x2="65.52" y2="11.38"/><line class="cls-2" x1="65.51" y1="6.01" x2="65.5" y2="0.01"/><line class="cls-2" x1="131.42" y1="368.98" x2="131.39" y2="356.48"/><line class="cls-9" x1="131.37" y1="347.05" x2="131.22" y2="288.5"/><polyline class="cls-2" points="131.2 278.68 131.17 266.18 143.15 262.63"/><line class="cls-10" x1="147.13" y1="261.45" x2="171.83" y2="254.14"/><polyline class="cls-2" points="175.97 252.91 187.96 249.37 175.95 245.88"/><line class="cls-10" x1="171.97" y1="244.72" x2="147.24" y2="237.54"/><polyline class="cls-2" points="143.09 236.33 131.08 232.84 131.05 220.34"/><line class="cls-11" x1="131.03" y1="212.99" x2="130.92" y2="167.34"/><polyline class="cls-2" points="130.9 159.68 130.87 147.18 142.85 143.61"/><line class="cls-12" x1="147.33" y1="142.27" x2="175.17" y2="133.98"/><polyline class="cls-2" points="179.84 132.59 191.82 129.02 179.98 125.03"/><line class="cls-13" x1="175.45" y1="123.51" x2="147.33" y2="114.04"/><polyline class="cls-2" points="142.62 112.45 130.77 108.46 130.74 95.96"/><line class="cls-14" x1="130.71" y1="85.84" x2="130.55" y2="23.04"/><line class="cls-2" x1="130.53" y1="12.5" x2="130.5"/><line class="cls-2" x1="195.42" y1="368.98" x2="195.36" y2="343.98"/><line class="cls-15" x1="195.34" y1="335.39" x2="195.24" y2="295.31"/><polyline class="cls-2" points="195.23 291.01 195.17 266.01 219.14 258.92"/><polyline class="cls-2" points="227.99 256.3 251.96 249.21 227.95 242.23"/><polyline class="cls-2" points="219.09 239.66 195.08 232.68 195.02 207.68"/><polyline class="cls-2" points="194.93 172.01 194.87 147.01 218.83 139.88"/><polyline class="cls-2" points="231.86 136 255.82 128.86 232.13 120.88"/><polyline class="cls-2" points="218.46 116.28 194.77 108.3 194.71 83.3"/><line class="cls-16" x1="194.68" y1="74.09" x2="194.58" y2="31.11"/><line class="cls-2" x1="194.56" y1="26.51" x2="194.5" y2="1.51"/><line class="cls-2" x1="259.42" y1="367.48" x2="259.36" y2="342.48"/><line class="cls-17" x1="259.34" y1="334.54" x2="259.23" y2="291.52"/><polyline class="cls-2" points="259.23 290.85 259.17 265.85 283.14 258.76"/><line class="cls-18" x1="284.5" y1="258.36" x2="291.87" y2="256.17"/><polyline class="cls-2" points="291.99 256.14 315.96 249.04 291.95 242.07"/><line class="cls-18" x1="290.59" y1="241.67" x2="283.2" y2="239.53"/><polyline class="cls-2" points="283.09 239.5 259.08 232.52 259.02 207.52"/><line class="cls-19" x1="259" y1="202.03" x2="258.93" y2="172.31"/><polyline class="cls-2" points="258.93 171.85 258.87 146.85 282.83 139.72"/><line class="cls-20" x1="284.83" y1="139.12" x2="295.69" y2="135.89"/><polyline class="cls-2" points="295.86 135.84 319.82 128.7 296.13 120.72"/><line class="cls-21" x1="294.03" y1="120.01" x2="282.64" y2="116.17"/><polyline class="cls-2" points="282.46 116.12 258.77 108.14 258.71 83.14"/><line class="cls-22" x1="258.68" y1="74.65" x2="258.57" y2="28.71"/><line class="cls-2" x1="258.57" y1="28" x2="258.5" y2="3"/></g></g></g></svg>