<svg id="logoSvg" xmlns="http://www.w3.org/2000/svg" viewBox="0 0 87.87 87.87"><style>.cls-1{fill:none;stroke:#000;stroke-miterlimit:10;}.cls-8{fill:#161616;}.cls-3{fill:#9d7f51;}</style><g id="Calque_2" data-name="Calque 2"><g id="Layer_1" data-name="Layer 1"><circle class="cls-1 circle" cx="43.93" cy="43.93" r="43.43"/><path class="cls-8" d="M30,39.07V48.8q0,3.68-1.82,4.9t-5.74,1.23H15.07q-.82,0-.82-1.23V34.16q0-1.23.82-1.23H22.7a17.68,17.68,0,0,1,3.06.22A6.39,6.39,0,0,1,28,34a3.8,3.8,0,0,1,1.53,1.89A8.61,8.61,0,0,1,30,39.07ZM28.28,48.8V39.07q0-2.79-1.19-3.57a8.63,8.63,0,0,0-4.39-.78H16V53.16h6.47q3.34,0,4.56-.77T28.28,48.8Z"/><path class="cls-8" d="M65.34,45.26a.68.68,0,0,1-.58-.27l-5.89-8.78V53.8Q58.87,55,58,55t-.88-1.16V34.06q0-1.19.82-1.19a1.19,1.19,0,0,1,1,.65L65.34,43l6.43-9.46a1.23,1.23,0,0,1,1-.65q.85,0,.85,1.19V53.84q0,1.16-.92,1.16t-.85-1.19V36.21L66,45A.72.72,0,0,1,65.34,45.26Z"/><path class="cls-3" d="M43.4,45.26a.68.68,0,0,1-.58-.27l-5.89-8.78V53.8Q36.93,55,36,55t-.88-1.16V34.06q0-1.19.82-1.19a1.19,1.19,0,0,1,1,.65L43.4,43l6.43-9.46a1.23,1.23,0,0,1,1-.65q.85,0,.85,1.19V53.84q0,1.16-.92,1.16T49.9,53.8V36.21L44,45A.72.72,0,0,1,43.4,45.26Z"/></g></g></svg>