<?xml version="1.0" encoding="utf-8"?>
<!-- Generator: Adobe Illustrator 20.1.0, SVG Export Plug-In . SVG Version: 6.00 Build 0)  -->
<svg version="1.1" id="Calque_1" xmlns="http://www.w3.org/2000/svg" xmlns:xlink="http://www.w3.org/1999/xlink" x="0px" y="0px"
	 viewBox="0 0 89 89" style="enable-background:new 0 0 89 89;" xml:space="preserve">
<style type="text/css">
	.st0{fill:#FFFFFF;stroke:#000000;stroke-miterlimit:10;}
	.st1{fill:#9D7F51;}
</style>
<title>Asset 14</title>
<circle class="st0" cx="44.5" cy="44.5" r="44"/>
<path class="st1" d="M44.5,78c0,0,2.3-25,1.8-29.3s-1.1-4.2-1.8-4.2s-1.4-0.3-1.9,4.1C42.1,53.1,44.5,78,44.5,78z M44.5,46
	c0.4,0,0.7,0.5,0.7,3.3s-0.3,3.3-0.7,3.3s-0.7-0.5-0.7-3.3S44.1,46,44.5,46z"/>
<path class="st1" d="M2.4,44.5c0,0,31.4,2.4,36.8,1.8s5.3-1.1,5.3-1.8s0.4-1.3-5.3-1.8S2.4,44.5,2.4,44.5z M42.6,44.5
	c0,0.4-0.6,0.7-4.2,0.7c-3.5,0-4.2-0.3-4.2-0.7s0.6-0.7,4.2-0.7S42.6,44.1,42.6,44.5z"/>
</svg>
